<?xml version="1.0" encoding="UTF-8" standalone="no"?>
<!-- Created with Inkscape (http://www.inkscape.org/) -->

<svg
   width="112.56346mm"
   height="113.03706mm"
   viewBox="0 0 112.56346 113.03706"
   version="1.1"
   id="svg1"
   xmlns="http://www.w3.org/2000/svg"
   xmlns:svg="http://www.w3.org/2000/svg">
  <defs
     id="defs1" />
  <g
     id="layer1"
     transform="translate(-57.423726,-112.26872)">
    <path
       style="fill:#ff932d;fill-opacity:1;stroke-width:0.813001"
       id="path2"
       d="m 59.664661,164.80983 c 15.864304,-11.764 63.388129,-9.82584 54.718499,7.83388 -9.00179,18.33633 -56.012899,-48.01856 -35.803566,-44.93137 19.463596,2.97327 52.548886,38.0739 33.724546,44.06108 -19.545594,6.21657 -7.27272,-73.505604 5.22313,-57.33487 12.03474,15.57404 11.06604,64.52811 -6.79281,55.81077 -18.543098,-9.05135 47.36961,-57.23713 44.72521,-36.88353 -2.54681,19.60253 -38.633,52.2532 -44.62731,33.49301 -6.22397,-19.47898 73.36463,-6.62022 56.9093,5.78559 -15.84813,11.94803 -63.45314,10.07295 -54.54456,-7.61061 9.24991,-18.36107 56.43659,47.19065 36.09832,44.48903 -19.58781,-2.60191 -52.394446,-38.17472 -33.45455,-44.15896 19.66555,-6.21351 6.27041,74.28996 -5.8014,57.67933 -11.626369,-15.99769 -9.66335,-64.53363 8.01993,-55.57504 18.3608,9.30184 -48.324619,57.10284 -45.634949,36.73137 2.590425,-19.61976 38.153259,-52.13752 44.319039,-33.24644 6.40202,19.61488 -73.550964,6.07148 -57.078829,-6.14324 z" />
    <text
       xml:space="preserve"
       style="font-size:50.8px;line-height:1;font-family:Helvetica;-inkscape-font-specification:Helvetica;text-align:start;letter-spacing:0.264583px;writing-mode:lr-tb;direction:ltr;text-anchor:start;white-space:pre;inline-size:46.4162;fill:#ececec;stroke-width:0.813001"
       x="108.5182"
       y="154.87019"
       id="text1"
       transform="matrix(0.76259612,0,0,0.7680838,19.483833,62.628323)"><tspan
         x="108.5182"
         y="154.87019"
         id="tspan3"><tspan
           style="font-family:Times;-inkscape-font-specification:Times;stroke-width:0.813"
           id="tspan2">E</tspan></tspan></text>
  </g>
</svg>
